<svg width="82" height="82" viewBox="0 0 82 82" fill="none" xmlns="http://www.w3.org/2000/svg">
<path d="M24.2583 58.3396H29.3833V40.8292H24.2583V58.3396ZM52.6167 58.3396H57.7417V22.4646H52.6167V58.3396ZM38.4375 58.3396H43.5625V48.2604H38.4375V58.3396ZM38.4375 40.8292H43.5625V35.7042H38.4375V40.8292ZM15.375 71.75C14.0083 71.75 12.8125 71.2375 11.7875 70.2125C10.7625 69.1875 10.25 67.9917 10.25 66.625V15.375C10.25 14.0083 10.7625 12.8125 11.7875 11.7875C12.8125 10.7625 14.0083 10.25 15.375 10.25H66.625C67.9917 10.25 69.1875 10.7625 70.2125 11.7875C71.2375 12.8125 71.75 14.0083 71.75 15.375V66.625C71.75 67.9917 71.2375 69.1875 70.2125 70.2125C69.1875 71.2375 67.9917 71.75 66.625 71.75H15.375ZM15.375 66.625H66.625V15.375H15.375V66.625Z" fill="#35AC3E"/>
</svg>
