<svg width="48" height="48" viewBox="0 0 48 48" fill="none" xmlns="http://www.w3.org/2000/svg">
<path d="M4 19.5V11C4 10.2 4.3 9.5 4.9 8.9C5.5 8.3 6.2 8 7 8H41C41.8 8 42.5 8.3 43.1 8.9C43.7 9.5 44 10.2 44 11V24H41V11H7V19.5H4ZM7 40C6.2 40 5.5 39.7 4.9 39.1C4.3 38.5 4 37.8 4 37V28.5H7V37H21.95V40H7ZM36 45L31.95 41.55C29.55 39.4833 27.9583 37.925 27.175 36.875C26.3917 35.825 26 34.7 26 33.5C26 32 26.5333 30.7083 27.6 29.625C28.6667 28.5417 29.9667 28 31.5 28C32.3667 28 33.1917 28.2 33.975 28.6C34.7583 29 35.4333 29.5833 36 30.35C36.5333 29.5833 37.1917 29 37.975 28.6C38.7583 28.2 39.6 28 40.5 28C42 28 43.2917 28.5417 44.375 29.625C45.4583 30.7083 46 32 46 33.5C46 34.7 45.5917 35.8417 44.775 36.925C43.9583 38.0083 42.25 39.65 39.65 41.85L36 45ZM36 41.05L37.6 39.65C39.8 37.7833 41.25 36.4583 41.95 35.675C42.65 34.8917 43 34.1667 43 33.5C43 32.8333 42.75 32.25 42.25 31.75C41.75 31.25 41.1667 31 40.5 31C40.0937 31 39.7253 31.0833 39.395 31.25C39.065 31.4167 38.7167 31.6833 38.35 32.05L36 34.25L33.6 32.05C33.2333 31.6833 32.882 31.4167 32.546 31.25C32.2103 31.0833 31.8617 31 31.5 31C30.8 31 30.2083 31.25 29.725 31.75C29.2417 32.25 29 32.8333 29 33.5C29 34.1667 29.4583 35.0167 30.375 36.05C31.2917 37.0833 32.6 38.2833 34.3 39.65L36 41.05ZM13.997 33.5C13.699 33.5 13.4333 33.4333 13.2 33.3C12.9667 33.1667 12.7667 32.9667 12.6 32.7L9.05 25.5H4V22.5H10C10.2723 22.5 10.5262 22.5773 10.7615 22.732C10.9968 22.8863 11.1763 23.0923 11.3 23.35L14 28.65L20.65 15.35C20.7833 15.0833 20.973 14.8917 21.219 14.775C21.465 14.6583 21.7233 14.6 21.994 14.6C22.2647 14.6 22.525 14.6583 22.775 14.775C23.025 14.8917 23.2167 15.0833 23.35 15.35L26.9 22.5H33.5V25.5H26C25.7 25.5 25.4313 25.4333 25.194 25.3C24.9563 25.1667 24.775 24.9667 24.65 24.7L21.95 19.4L15.3 32.7C15.176 32.9667 14.996 33.1667 14.76 33.3C14.5243 33.4333 14.27 33.5 13.997 33.5Z" fill="#35AC3E"/>
</svg>
