<svg width="48" height="48" viewBox="0 0 48 48" fill="none" xmlns="http://www.w3.org/2000/svg">
<path d="M23.2496 17.35V11.2H17.0496V8.19999H23.2496V2.04999H26.2496V8.19999H32.3996V11.2H26.2496V17.35H23.2496ZM14.4891 44C13.4961 44 12.6496 43.6465 11.9496 42.9395C11.2496 42.2325 10.8996 41.3825 10.8996 40.3895C10.8996 39.3965 11.2531 38.55 11.9601 37.85C12.6671 37.15 13.5171 36.8 14.5101 36.8C15.5031 36.8 16.3496 37.1535 17.0496 37.8605C17.7496 38.5675 18.0996 39.4175 18.0996 40.4105C18.0996 41.4035 17.7461 42.25 17.0391 42.95C16.3321 43.65 15.4821 44 14.4891 44ZM34.6891 44C33.6961 44 32.8496 43.6465 32.1496 42.9395C31.4496 42.2325 31.0996 41.3825 31.0996 40.3895C31.0996 39.3965 31.4531 38.55 32.1601 37.85C32.8671 37.15 33.7171 36.8 34.7101 36.8C35.7031 36.8 36.5496 37.1535 37.2496 37.8605C37.9496 38.5675 38.2996 39.4175 38.2996 40.4105C38.2996 41.4035 37.9461 42.25 37.2391 42.95C36.5321 43.65 35.6821 44 34.6891 44ZM3.09961 6.99999V3.99999H8.89961L17.3996 22.2H31.7851L39.7996 8.19999H43.1496L35.0496 23.35C34.6829 23.9833 34.2069 24.4917 33.6216 24.875C33.0363 25.2583 32.3956 25.45 31.6996 25.45H16.5496L13.7496 30.65H38.2996V33.65H14.1996C12.9443 33.65 11.9888 33.15 11.3331 32.15C10.6774 31.15 10.6329 30.1333 11.1996 29.1L14.3996 23.2L6.99961 6.99999H3.09961Z" fill="#35AC3E"/>
</svg>
