<svg width="32" height="30" viewBox="0 0 32 30" fill="none" xmlns="http://www.w3.org/2000/svg">
<path d="M2.5 25.2917V27.5V2.5V25.2917ZM2.5 30C1.8125 30 1.22403 29.7551 0.734584 29.2654C0.244861 28.776 0 28.1875 0 27.5V2.5C0 1.8125 0.244861 1.22389 0.734584 0.734167C1.22403 0.244722 1.8125 0 2.5 0H27.5C28.1875 0 28.7761 0.244722 29.2658 0.734167C29.7553 1.22389 30 1.8125 30 2.5V8.08333H27.5V2.5H2.5V27.5H27.5V21.9583H30V27.5C30 28.1875 29.7553 28.776 29.2658 29.2654C28.7761 29.7551 28.1875 30 27.5 30H2.5ZM17.4167 22.7917C16.5689 22.7917 15.8431 22.4939 15.2392 21.8983C14.6353 21.3025 14.3333 20.5864 14.3333 19.75V10.2917C14.3333 9.45528 14.6353 8.73917 15.2392 8.14333C15.8431 7.54778 16.5689 7.25 17.4167 7.25H28.6667C29.5147 7.25 30.2406 7.54778 30.8442 8.14333C31.4481 8.73917 31.75 9.45528 31.75 10.2917V19.75C31.75 20.5864 31.4481 21.3025 30.8442 21.8983C30.2406 22.4939 29.5147 22.7917 28.6667 22.7917H17.4167ZM29.25 20.2917V9.75H16.8333V20.2917H29.25ZM22.1767 17.6667C22.92 17.6667 23.5486 17.4033 24.0625 16.8767C24.5764 16.35 24.8333 15.7106 24.8333 14.9583C24.8333 14.2292 24.5694 13.6093 24.0417 13.0988C23.5139 12.5885 22.8889 12.3333 22.1667 12.3333C21.4444 12.3333 20.8194 12.5885 20.2917 13.0988C19.7639 13.6093 19.5 14.2292 19.5 14.9583C19.5 15.7106 19.7603 16.35 20.2808 16.8767C20.8011 17.4033 21.4331 17.6667 22.1767 17.6667Z" fill="#35AC3E"/>
</svg>
