<svg width="80" height="80" viewBox="0 0 80 80" fill="none" xmlns="http://www.w3.org/2000/svg">
<path d="M23.4997 70C21.6108 70 19.9997 69.3333 18.6663 68C17.333 66.6667 16.6663 65.0278 16.6663 63.0833V31.3333L9.91634 15H3.33301V10H13.2497L18.833 23.3333H71.1663C72.1108 23.3333 72.833 23.7361 73.333 24.5417C73.833 25.3472 73.8608 26.1667 73.4163 27L62.9997 47.5C65.833 47.8333 68.1941 49.0556 70.083 51.1667C71.9719 53.2778 72.9163 55.7778 72.9163 58.6667C72.9163 61.7778 71.833 64.4306 69.6663 66.625C67.4997 68.8194 64.8608 69.9167 61.7497 69.9167C58.583 69.9167 55.9163 68.8194 53.7497 66.625C51.583 64.4306 50.4997 61.7778 50.4997 58.6667C50.4997 57.5556 50.6524 56.4722 50.958 55.4167C51.2636 54.3611 51.7219 53.3889 52.333 52.5L39.583 51.4167L29.2497 66.8333C28.6386 67.7778 27.8191 68.5417 26.7913 69.125C25.7636 69.7083 24.6663 70 23.4997 70ZM57.1663 48L67.1663 28.3333H20.833L25.9997 40.6667C26.6108 42.1111 27.4997 43.2778 28.6663 44.1667C29.833 45.0556 31.2219 45.5833 32.833 45.75L57.1663 48ZM23.583 64.9167C23.6941 64.9167 24.1941 64.6389 25.083 64.0833L33.9163 50.9167C31.6386 50.6944 29.458 50.1389 27.3747 49.25C25.2913 48.3611 23.7497 46.8056 22.7497 44.5833L21.6663 42.25V63.1667C21.6663 63.6667 21.8747 64.0833 22.2913 64.4167C22.708 64.75 23.1386 64.9167 23.583 64.9167ZM61.6663 64.5833C63.4441 64.5833 64.9302 63.9722 66.1247 62.75C67.3191 61.5278 67.9163 60.0556 67.9163 58.3333C67.9163 56.5556 67.3191 55.0694 66.1247 53.875C64.9302 52.6806 63.4441 52.0833 61.6663 52.0833C59.9441 52.0833 58.4719 52.6806 57.2497 53.875C56.0274 55.0694 55.4163 56.5556 55.4163 58.3333C55.4163 60.0556 56.0274 61.5278 57.2497 62.75C58.4719 63.9722 59.9441 64.5833 61.6663 64.5833Z" fill="#35AC3E"/>
</svg>
